<svg width="37" height="50" viewBox="0 0 37 50" fill="none" xmlns="http://www.w3.org/2000/svg">
<circle cx="18.3331" cy="18.772" r="14.4737" fill="white"/>
<path d="M9.60443 23.2324C9.59515 23.2545 9.58739 23.2773 9.58122 23.3006C9.57421 23.3268 9.56865 23.3534 9.56456 23.3804C9.56351 23.3587 9.56044 23.3372 9.5554 23.3162C9.54954 23.2918 9.54167 23.268 9.53187 23.2452L9.36226 22.846H9.34919L9.18317 23.2463C9.17253 23.2706 9.16358 23.2957 9.15638 23.3215C9.15133 23.3405 9.14847 23.3602 9.14788 23.38C9.14352 23.3481 9.1384 23.319 9.13252 23.2927C9.12805 23.2715 9.12193 23.2507 9.11422 23.2306L8.96062 22.873H8.79297L9.1469 23.6593L9.3103 23.269C9.31509 23.2569 9.32163 23.2388 9.32991 23.2147C9.33819 23.1906 9.34756 23.1615 9.35801 23.1274C9.36433 23.1499 9.3713 23.1727 9.37893 23.1959C9.38656 23.2191 9.39636 23.2456 9.40834 23.2754L9.56619 23.6611L9.92143 22.8747H9.75508L9.60443 23.2324Z" fill="#2B66FA"/>
<path d="M10.3272 22.8461C10.2793 22.8442 10.2315 22.8532 10.187 22.8725C10.1425 22.8918 10.1022 22.921 10.0687 22.9582C10.0349 22.9964 10.0085 23.0416 9.99118 23.0911C9.97384 23.1406 9.96584 23.1934 9.96768 23.2463C9.96541 23.2993 9.97291 23.3523 9.98975 23.4022C10.0066 23.452 10.0324 23.4977 10.0657 23.5366C10.1 23.5734 10.1409 23.6021 10.1859 23.6209C10.2309 23.6396 10.279 23.648 10.3272 23.6455C10.3969 23.6474 10.4658 23.6286 10.5265 23.5912C10.587 23.5504 10.6363 23.4928 10.6693 23.4244L10.5386 23.3446C10.5188 23.3893 10.4884 23.4276 10.4507 23.4557C10.4126 23.4803 10.3689 23.4926 10.3246 23.4911C10.2993 23.4924 10.2742 23.4879 10.2507 23.4778C10.2272 23.4678 10.2059 23.4525 10.1883 23.433C10.1515 23.3877 10.1312 23.3294 10.1311 23.269H10.6765V23.2364C10.6765 23.1134 10.6458 23.0177 10.5844 22.9493C10.5229 22.881 10.4372 22.8465 10.3272 22.8461ZM10.1406 23.1537C10.1492 23.106 10.1722 23.0628 10.2059 23.0309C10.2416 23.0022 10.2854 22.9878 10.3298 22.9901C10.3758 22.9876 10.4212 23.0028 10.4579 23.0331C10.4906 23.0641 10.5108 23.1078 10.5141 23.1548L10.1406 23.1537Z" fill="#2B66FA"/>
<path d="M11.1338 23.1885C11.1198 23.1823 11.1001 23.1743 11.0746 23.1643C10.994 23.1324 10.9537 23.0969 10.9537 23.0579C10.9534 23.046 10.9557 23.0343 10.9604 23.0236C10.9651 23.0129 10.9721 23.0036 10.9808 22.9965C11.0016 22.9802 11.0268 22.9721 11.0524 22.9734C11.0774 22.9728 11.102 22.9799 11.1233 22.994C11.143 23.0069 11.1581 23.0267 11.1661 23.0501L11.2773 22.967C11.2598 22.9277 11.2307 22.8958 11.1946 22.8766C11.1523 22.8548 11.1058 22.8443 11.059 22.846C10.991 22.8424 10.924 22.8642 10.8691 22.9078C10.8462 22.9266 10.8279 22.9509 10.8154 22.979C10.803 23.007 10.7968 23.0378 10.7975 23.0689C10.7966 23.1146 10.8122 23.159 10.841 23.1924C10.8853 23.2366 10.9375 23.2706 10.9942 23.2924C11.0073 23.2986 11.0258 23.3064 11.0498 23.3158C11.1208 23.3445 11.1563 23.3789 11.1563 23.4191C11.1568 23.4327 11.1543 23.4461 11.1491 23.4585C11.1438 23.4708 11.136 23.4816 11.1263 23.4901C11.1023 23.5089 11.0731 23.5182 11.0436 23.5163C11.0082 23.518 10.9732 23.5078 10.9433 23.4872C10.9167 23.467 10.8978 23.437 10.89 23.4028L10.7593 23.4794C10.7812 23.5316 10.8175 23.5752 10.8632 23.604C10.9145 23.6329 10.9718 23.647 11.0295 23.6448C11.1023 23.6493 11.1744 23.627 11.2341 23.5816C11.2584 23.5611 11.2778 23.5346 11.2908 23.5043C11.3037 23.474 11.3097 23.4408 11.3083 23.4074C11.3097 23.3607 11.2952 23.315 11.2675 23.2793C11.2299 23.2382 11.1842 23.2071 11.1338 23.1885Z" fill="#2B66FA"/>
<path d="M11.6609 22.592H11.5047V22.873H11.3848V23.0217H11.5047V23.615H11.6609V23.0217H11.7805V22.873H11.6609V22.592Z" fill="#2B66FA"/>
<path d="M12.2223 22.8461C12.1744 22.8442 12.1267 22.8532 12.0822 22.8725C12.0377 22.8918 11.9974 22.921 11.9638 22.9582C11.9303 22.9963 11.9041 23.0412 11.8868 23.0905C11.8695 23.1397 11.8615 23.1922 11.8632 23.2449C11.8609 23.2979 11.8684 23.3509 11.8853 23.4007C11.9021 23.4506 11.9279 23.4963 11.9612 23.5351C11.9955 23.572 12.0364 23.6007 12.0814 23.6194C12.1264 23.6382 12.1745 23.6466 12.2227 23.6441C12.2926 23.6459 12.3616 23.627 12.4224 23.5894C12.4828 23.5486 12.5321 23.4911 12.5652 23.4226L12.4344 23.3428C12.4146 23.3875 12.3843 23.4258 12.3465 23.4539C12.3085 23.4785 12.2647 23.4908 12.2204 23.4894C12.1952 23.4906 12.17 23.4861 12.1465 23.476C12.123 23.466 12.1018 23.4507 12.0841 23.4312C12.0477 23.3862 12.0276 23.3285 12.0272 23.2687H12.5737V23.2364C12.5737 23.1134 12.5429 23.0177 12.4815 22.9493C12.4201 22.881 12.3337 22.8465 12.2223 22.8461ZM12.0357 23.1537C12.0443 23.106 12.0673 23.0628 12.1011 23.0309C12.1368 23.0022 12.1806 22.9878 12.225 22.9901C12.271 22.9873 12.3164 23.0021 12.3534 23.032C12.3861 23.063 12.4063 23.1067 12.4096 23.1537H12.0357Z" fill="#2B66FA"/>
<path d="M13.0618 22.8461C13.0249 22.8448 12.9887 22.8573 12.9592 22.8816C12.9286 22.9107 12.906 22.9484 12.8938 22.9905V22.8709H12.7373V23.6161H12.8938V23.2897C12.8938 23.1832 12.9047 23.1074 12.9265 23.0622C12.9371 23.0404 12.9533 23.0223 12.9731 23.0103C12.993 22.9983 13.0156 22.9928 13.0383 22.9944C13.056 22.9942 13.0736 22.9967 13.0906 23.0019C13.1062 23.0069 13.1209 23.0147 13.134 23.0249L13.1903 22.8809C13.1701 22.8701 13.149 22.8616 13.1272 22.8557C13.1058 22.8496 13.0839 22.8464 13.0618 22.8461Z" fill="#2B66FA"/>
<path d="M13.9055 22.9526C13.8852 22.9182 13.856 22.8912 13.8215 22.8749C13.7801 22.8562 13.7355 22.8472 13.6907 22.8487C13.6375 22.847 13.5846 22.8592 13.5365 22.8841C13.4915 22.9104 13.4535 22.9489 13.4264 22.9959V22.8746H13.2793V23.6165H13.4358V23.2784C13.4349 23.2338 13.4372 23.1891 13.4427 23.1449C13.446 23.1205 13.4543 23.0971 13.4669 23.0765C13.4837 23.0496 13.507 23.0282 13.5342 23.0147C13.565 22.9995 13.5985 22.992 13.6322 22.9927C13.688 22.9927 13.7268 23.0088 13.7486 23.041C13.7704 23.0731 13.7813 23.138 13.7813 23.2354V23.6165H13.9391V23.1655C13.9404 23.1181 13.9378 23.0706 13.9313 23.0236C13.9267 22.9984 13.9179 22.9744 13.9055 22.9526Z" fill="#2B66FA"/>
<path d="M14.7859 22.592H14.6294V22.873H14.5098V23.0217H14.6294V23.615H14.7859V23.0217H14.9055V22.873H14.7859V22.592Z" fill="#2B66FA"/>
<path d="M15.366 22.8461C15.3291 22.8448 15.2929 22.8573 15.2634 22.8816C15.2328 22.9107 15.2102 22.9484 15.198 22.9905V22.8709H15.0415V23.6161H15.1964V23.2897C15.1964 23.1832 15.2073 23.1074 15.2291 23.0622C15.2397 23.0404 15.2559 23.0223 15.2757 23.0103C15.2955 22.9983 15.3182 22.9928 15.3409 22.9944C15.3585 22.9942 15.3761 22.9967 15.3931 23.0019C15.4087 23.0069 15.4234 23.0147 15.4366 23.0249L15.4928 22.8809C15.4727 22.8701 15.4515 22.8616 15.4297 22.8557C15.4089 22.8497 15.3875 22.8465 15.366 22.8461Z" fill="#2B66FA"/>
<path d="M16.0706 22.9944C16.0536 22.9485 16.023 22.91 15.9837 22.8851C15.9243 22.8509 15.856 22.8394 15.7899 22.8522C15.7237 22.8651 15.6634 22.9017 15.6186 22.9561C15.5593 23.0374 15.5291 23.1392 15.5336 23.2428C15.5336 23.3675 15.5614 23.4656 15.617 23.5373C15.6451 23.5729 15.6803 23.601 15.72 23.6194C15.7596 23.6379 15.8027 23.6462 15.8457 23.6438C15.8902 23.6454 15.9343 23.6346 15.9737 23.6124C16.0132 23.5902 16.0468 23.5574 16.0712 23.5171V23.6132H16.2278V22.8731H16.0712L16.0706 22.9944ZM16.0219 23.4248C16.0049 23.4462 15.9839 23.4635 15.9603 23.4755C15.9368 23.4875 15.9111 23.494 15.8851 23.4945C15.859 23.495 15.8332 23.4895 15.8092 23.4784C15.7853 23.4673 15.7638 23.4509 15.7461 23.4301C15.7138 23.3755 15.6968 23.3118 15.6971 23.2469C15.6975 23.182 15.7151 23.1185 15.748 23.0643C15.7651 23.0424 15.7865 23.0251 15.8107 23.0136C15.8349 23.0022 15.8612 22.9969 15.8876 22.9983C15.9136 22.9968 15.9395 23.0019 15.9634 23.013C15.9873 23.0241 16.0086 23.0411 16.0255 23.0625C16.061 23.114 16.0785 23.1775 16.0748 23.2417C16.0777 23.3076 16.059 23.3725 16.0219 23.4248Z" fill="#2B66FA"/>
<path d="M16.9285 22.9945C16.9115 22.9485 16.8809 22.9101 16.8416 22.8852C16.7822 22.851 16.7139 22.8394 16.6478 22.8523C16.5816 22.8651 16.5213 22.9017 16.4765 22.9561C16.4172 23.0374 16.387 23.1393 16.3916 23.2428C16.3916 23.3675 16.4193 23.4657 16.4749 23.5374C16.503 23.5729 16.5382 23.601 16.5779 23.6195C16.6175 23.6379 16.6606 23.6463 16.7037 23.6438C16.7477 23.6457 16.7915 23.6353 16.8308 23.6137C16.8701 23.5921 16.9038 23.56 16.9285 23.5203V23.6165H17.085V22.4022H16.9285V22.9945ZM16.8801 23.4252C16.863 23.4466 16.842 23.4638 16.8184 23.4757C16.7948 23.4877 16.7691 23.4941 16.7431 23.4946C16.717 23.495 16.6912 23.4896 16.6672 23.4785C16.6433 23.4674 16.6217 23.4509 16.604 23.4302C16.5717 23.3756 16.5547 23.3119 16.555 23.247C16.5554 23.182 16.5731 23.1186 16.6059 23.0644C16.623 23.0425 16.6444 23.0251 16.6686 23.0137C16.6928 23.0022 16.7191 22.997 16.7455 22.9984C16.7715 22.9969 16.7974 23.0019 16.8213 23.013C16.8452 23.0242 16.8665 23.0411 16.8834 23.0626C16.9189 23.1141 16.9364 23.1776 16.9327 23.2418C16.936 23.3076 16.9177 23.3726 16.8811 23.4252H16.8801Z" fill="#2B66FA"/>
<path d="M17.6107 22.846C17.5629 22.8445 17.5154 22.8538 17.4711 22.8734C17.4268 22.8929 17.3868 22.9223 17.3535 22.9595C17.3199 22.9976 17.2937 23.0426 17.2764 23.0918C17.2592 23.1411 17.2511 23.1936 17.2528 23.2462C17.2506 23.2993 17.2581 23.3523 17.2749 23.4021C17.2917 23.4519 17.3176 23.4976 17.3509 23.5365C17.3851 23.5733 17.426 23.6021 17.4711 23.6208C17.5161 23.6396 17.5642 23.6479 17.6123 23.6454C17.6819 23.6472 17.7505 23.6284 17.811 23.5911C17.8715 23.5504 17.9208 23.4928 17.9538 23.4244L17.8231 23.3445C17.8033 23.3893 17.7729 23.4276 17.7352 23.4556C17.6971 23.4802 17.6534 23.4925 17.6091 23.4911C17.5838 23.4923 17.5587 23.4878 17.5352 23.4778C17.5117 23.4677 17.4904 23.4524 17.4728 23.4329C17.4364 23.3879 17.4162 23.3302 17.4159 23.2704H17.9623V23.2363C17.9623 23.1133 17.9316 23.0176 17.8702 22.9492C17.8087 22.8809 17.7222 22.8465 17.6107 22.846ZM17.4241 23.1536C17.4327 23.106 17.4557 23.0628 17.4894 23.0308C17.5252 23.0021 17.5689 22.9877 17.6133 22.99C17.6593 22.9872 17.7048 23.002 17.7417 23.0319C17.7744 23.0629 17.7946 23.1066 17.7979 23.1536H17.4241Z" fill="#2B66FA"/>
<path d="M19.0545 22.9944C19.0375 22.9485 19.0069 22.91 18.9675 22.8851C18.9081 22.8509 18.8399 22.8394 18.7737 22.8522C18.7076 22.8651 18.6473 22.9017 18.6025 22.9561C18.5432 23.0374 18.513 23.1392 18.5175 23.2428C18.5175 23.3675 18.5453 23.4656 18.6009 23.5373C18.629 23.5729 18.6642 23.601 18.7039 23.6194C18.7435 23.6379 18.7865 23.6462 18.8296 23.6438C18.8741 23.6454 18.9181 23.6346 18.9576 23.6124C18.9971 23.5902 19.0307 23.5574 19.0551 23.5171V23.6157C19.0551 23.6902 19.0402 23.7435 19.0104 23.7754C18.9805 23.8073 18.9325 23.8233 18.8662 23.8233C18.8297 23.8255 18.7933 23.8168 18.761 23.7981C18.7491 23.7907 18.7391 23.7801 18.7319 23.7674C18.7248 23.7547 18.7206 23.7403 18.7198 23.7254H18.5518C18.5518 23.7595 18.5596 23.7931 18.5745 23.8231C18.5895 23.8531 18.6111 23.8785 18.6375 23.8971C18.7047 23.9435 18.7835 23.966 18.863 23.9617C18.9893 23.9617 19.0792 23.9321 19.1326 23.873C19.186 23.8138 19.2126 23.7118 19.2126 23.5668V22.8731H19.0561L19.0545 22.9944ZM19.0058 23.4248C18.9888 23.4462 18.9678 23.4635 18.9442 23.4755C18.9206 23.4875 18.895 23.494 18.869 23.4945C18.8429 23.495 18.8171 23.4895 18.7931 23.4784C18.7692 23.4674 18.7476 23.4509 18.73 23.4301C18.6977 23.3755 18.6807 23.3118 18.681 23.2469C18.6813 23.182 18.699 23.1186 18.7319 23.0643C18.7489 23.0424 18.7704 23.0251 18.7946 23.0136C18.8188 23.0022 18.8451 22.9969 18.8715 22.9983C18.8974 22.9968 18.9234 23.0019 18.9473 23.013C18.9712 23.0241 18.9924 23.0411 19.0094 23.0625C19.0448 23.1141 19.0623 23.1775 19.0587 23.2417C19.0616 23.3076 19.0429 23.3725 19.0058 23.4248Z" fill="#2B66FA"/>
<path d="M19.7532 22.8461C19.7163 22.8448 19.6801 22.8573 19.6506 22.8816C19.62 22.9107 19.5974 22.9484 19.5852 22.9905V22.8709H19.4287V23.6161H19.5852V23.2897C19.5852 23.1832 19.5961 23.1074 19.6179 23.0622C19.6285 23.0404 19.6447 23.0223 19.6645 23.0103C19.6844 22.9983 19.707 22.9928 19.7297 22.9944C19.7474 22.9942 19.765 22.9967 19.782 23.0019C19.7976 23.0069 19.8123 23.0147 19.8254 23.0249L19.8817 22.8809C19.8615 22.8701 19.8404 22.8616 19.8186 22.8557C19.7972 22.8496 19.7753 22.8464 19.7532 22.8461Z" fill="#2B66FA"/>
<path d="M20.5626 22.9645C20.5277 22.9267 20.4861 22.8969 20.4404 22.8768C20.3477 22.8372 20.2446 22.8372 20.1518 22.8768C20.1068 22.8963 20.0657 22.9252 20.0309 22.962C19.996 22.9986 19.9683 23.0424 19.9492 23.0908C19.9305 23.1395 19.9209 23.1917 19.9209 23.2445C19.9209 23.2972 19.9305 23.3495 19.9492 23.3981C19.9885 23.4966 20.0617 23.5745 20.1531 23.6153C20.2452 23.6555 20.348 23.6555 20.4401 23.6153C20.4865 23.5947 20.5289 23.5646 20.5649 23.5266C20.5998 23.4907 20.6274 23.4473 20.646 23.3992C20.6646 23.3504 20.6741 23.298 20.6737 23.2452C20.6739 23.1933 20.6643 23.1418 20.6456 23.094C20.6263 23.0452 20.5981 23.0011 20.5626 22.9645ZM20.4463 23.4212C20.4273 23.4437 20.4042 23.4617 20.3785 23.4741C20.3527 23.4864 20.3249 23.4927 20.2968 23.4927C20.2687 23.4927 20.2408 23.4864 20.2151 23.4741C20.1893 23.4617 20.1662 23.4437 20.1473 23.4212C20.1076 23.3731 20.0857 23.3108 20.0857 23.2463C20.0857 23.1817 20.1076 23.1194 20.1473 23.0713C20.1663 23.0488 20.1894 23.0308 20.2152 23.0184C20.2409 23.0061 20.2688 22.9998 20.2969 22.9998C20.3251 22.9998 20.3529 23.0061 20.3787 23.0184C20.4045 23.0308 20.4276 23.0488 20.4466 23.0713C20.4862 23.1194 20.5081 23.1817 20.5081 23.2463C20.5081 23.3108 20.4862 23.3731 20.4466 23.4212H20.4463Z" fill="#2B66FA"/>
<path d="M21.3386 23.2911C21.3386 23.362 21.3248 23.4137 21.2974 23.4461C21.2585 23.4764 21.2119 23.4927 21.1641 23.4927C21.1162 23.4927 21.0696 23.4764 21.0307 23.4461C21.0033 23.4149 20.9895 23.3632 20.9895 23.2911V22.873H20.833V23.24C20.833 23.3819 20.8592 23.4852 20.9114 23.5498C20.9637 23.6143 21.0483 23.6462 21.165 23.6452C21.2799 23.6452 21.3634 23.6132 21.4157 23.549C21.468 23.4849 21.4941 23.3819 21.4941 23.24V22.873H21.3376L21.3386 23.2911Z" fill="#2B66FA"/>
<path d="M22.0941 22.8461C22.0439 22.8446 21.9942 22.8578 21.9503 22.8844C21.9109 22.9092 21.8801 22.9475 21.8628 22.9934V22.872H21.7065V23.9627H21.8634V23.5203C21.8879 23.5606 21.9214 23.5934 21.9609 23.6156C22.0004 23.6378 22.0445 23.6486 22.0889 23.6469C22.132 23.6494 22.175 23.6411 22.2147 23.6226C22.2543 23.6041 22.2896 23.5761 22.3177 23.5405C22.3732 23.4695 22.401 23.3714 22.401 23.246C22.4055 23.1425 22.3755 23.0407 22.3164 22.9593C22.2899 22.9231 22.2561 22.894 22.2175 22.8743C22.179 22.8547 22.1367 22.845 22.0941 22.8461ZM22.1876 23.4291C22.1708 23.4506 22.1497 23.4675 22.1259 23.4787C22.1021 23.4898 22.0762 23.4948 22.0503 23.4933C22.0238 23.4943 21.9974 23.4885 21.9732 23.4766C21.949 23.4647 21.9276 23.4468 21.9108 23.4245C21.8735 23.372 21.8547 23.3068 21.8579 23.2407C21.8542 23.1764 21.8719 23.1129 21.9075 23.0615C21.9255 23.0411 21.9471 23.0249 21.9711 23.0139C21.995 23.0028 22.0208 22.9973 22.0468 22.9975C22.0729 22.9977 22.0986 23.0036 22.1224 23.015C22.1462 23.0264 22.1676 23.0429 22.1853 23.0636C22.2181 23.1179 22.2358 23.1813 22.2362 23.2462C22.2366 23.3111 22.2197 23.3747 22.1876 23.4294V23.4291Z" fill="#2B66FA"/>
<path d="M21.722 15.5745H20.7589V13.1801H19.4997V15.5745H18.5366V16.842H19.4997V21.8981H20.7589V16.842H21.722V15.5745Z" fill="#2B66FA"/>
<path d="M26.7234 15.5748V16.6088C26.5763 16.204 26.3433 15.8939 26.0243 15.6784C25.7054 15.4629 25.3215 15.355 24.8727 15.3548C24.1376 15.3548 23.5419 15.6649 23.0857 16.2852C22.6295 16.9054 22.4007 17.7203 22.3994 18.7297C22.3994 19.7925 22.6228 20.6296 23.0697 21.2409C23.5165 21.8521 24.1286 22.1579 24.906 22.1581C25.2927 22.1581 25.636 22.0692 25.9358 21.8913C26.2356 21.7134 26.4977 21.4422 26.7221 21.0776L26.7106 21.9183C26.7067 22.5541 26.5869 23.0077 26.3511 23.2791C26.1154 23.5504 25.7286 23.6861 25.1907 23.6861C24.827 23.6861 24.5447 23.6151 24.3436 23.4732C24.1425 23.3312 24.0322 23.1245 24.0128 22.8529L22.6609 22.8596C22.6685 23.4688 22.8987 23.9568 23.3514 24.3237C23.8041 24.6906 24.4095 24.8741 25.1675 24.8741C26.1847 24.8741 26.908 24.6216 27.3374 24.1168C27.7669 23.612 27.9816 22.7416 27.9816 21.5056V15.5748H26.7234ZM26.3312 20.2771C26.048 20.6729 25.6796 20.8708 25.2259 20.8708C24.7466 20.8708 24.3753 20.6885 24.1119 20.324C23.8485 19.9594 23.717 19.4414 23.7174 18.7698C23.7174 18.1027 23.8538 17.5813 24.1266 17.2056C24.3994 16.83 24.7737 16.6422 25.2495 16.6422C25.7253 16.6422 26.0957 16.8244 26.3606 17.189C26.6255 17.5535 26.758 18.0621 26.758 18.7148C26.7582 19.3606 26.6162 19.8814 26.3319 20.2771H26.3312Z" fill="#2B66FA"/>
<path d="M18.6305 21.3168L17.0841 18.5561L15.8017 22.0616L13.7297 16.7308L11.8042 22.0616L10.4404 18.3166L8.75087 21.3168C8.70856 21.3924 8.68554 21.4788 8.68415 21.5673C8.68276 21.6558 8.70306 21.743 8.74297 21.8202C8.78288 21.8973 8.84096 21.9615 8.91126 22.0062C8.98156 22.051 9.06155 22.0746 9.14303 22.0747H18.2377C18.3192 22.0747 18.3993 22.0512 18.4697 22.0065C18.5401 21.9618 18.5982 21.8976 18.6382 21.8205C18.6782 21.7433 18.6986 21.656 18.6972 21.5675C18.6959 21.479 18.6728 21.3924 18.6305 21.3168Z" fill="#2B66FA"/>
<path d="M13.7251 14L15.7258 19.2622L16.3745 17.2893L14.095 13.2215C14.054 13.1485 13.9964 13.0882 13.9277 13.0464C13.859 13.0045 13.7816 12.9825 13.7029 12.9825C13.6241 12.9825 13.5467 13.0045 13.478 13.0464C13.4094 13.0882 13.3518 13.1485 13.3107 13.2215L11.1538 17.0537L11.9257 19.2672L13.7251 14Z" fill="#2B66FA"/>
<path d="M27.3547 13.1853C27.4385 13.1847 27.5216 13.2022 27.5992 13.2367C27.6763 13.2715 27.7459 13.3232 27.8038 13.3886C27.861 13.4508 27.9062 13.5247 27.9368 13.6061C27.9674 13.6883 27.983 13.7762 27.9825 13.8648C27.9831 13.9553 27.9671 14.0451 27.9355 14.1288C27.9042 14.2109 27.8577 14.285 27.7988 14.3467C27.7395 14.4098 27.6696 14.46 27.593 14.4947C27.5176 14.5288 27.4367 14.5463 27.355 14.5461C27.2728 14.5463 27.1914 14.5283 27.1158 14.4932C26.9628 14.4212 26.8412 14.288 26.7759 14.1214C26.7449 14.0392 26.7291 13.9511 26.7295 13.8622C26.7299 13.7734 26.7465 13.6855 26.7782 13.6036C26.8109 13.5193 26.8586 13.4427 26.9184 13.3783C26.975 13.3161 27.0426 13.267 27.1171 13.2339C27.1927 13.2011 27.2734 13.1846 27.3547 13.1853ZM27.3547 13.2875C27.2853 13.2867 27.2165 13.3009 27.1521 13.329C27.0887 13.3575 27.0313 13.3994 26.9831 13.4525C26.9325 13.5079 26.892 13.5731 26.8635 13.6448C26.8359 13.7146 26.8216 13.7898 26.8217 13.8659C26.8219 13.941 26.8359 14.0153 26.8629 14.0844C26.8895 14.1542 26.9285 14.2176 26.9776 14.2711C27.0267 14.3262 27.0852 14.3703 27.1498 14.401C27.2117 14.4303 27.2784 14.4457 27.3459 14.446C27.4178 14.446 27.4889 14.4307 27.5554 14.401C27.6214 14.372 27.6815 14.329 27.7322 14.2746C27.7818 14.223 27.8212 14.161 27.848 14.0923C27.8749 14.0236 27.8886 13.9497 27.8884 13.8751C27.8889 13.7975 27.8759 13.7206 27.8498 13.6483C27.824 13.5779 27.7854 13.5139 27.7364 13.4599C27.6862 13.4053 27.6267 13.3618 27.5613 13.3318C27.4962 13.3022 27.4263 13.2871 27.3557 13.2875H27.3547ZM27.0988 13.4713H27.3691C27.4667 13.4713 27.5407 13.4887 27.591 13.5234C27.6152 13.5395 27.6349 13.5623 27.6482 13.5894C27.6615 13.6166 27.6678 13.6471 27.6665 13.6778C27.6694 13.7278 27.6549 13.7771 27.6259 13.8161C27.5969 13.855 27.5556 13.8808 27.51 13.8882L27.6665 14.2338H27.4982L27.359 13.9145H27.2495V14.2338H27.0988V13.4713ZM27.2495 13.5742V13.8141H27.3475C27.3904 13.8175 27.4334 13.8078 27.4714 13.786C27.4845 13.7763 27.495 13.7629 27.5019 13.7474C27.5088 13.7318 27.5118 13.7145 27.5106 13.6973C27.5117 13.6793 27.5085 13.6612 27.5013 13.6449C27.4942 13.6286 27.4833 13.6145 27.4698 13.604C27.4297 13.5806 27.3843 13.5703 27.339 13.5742H27.2495Z" fill="#2B66FA"/>
<path d="M18.3333 0C8.21289 0.0113932 0.0113932 8.21289 0 18.3333C0 28.184 16.9686 48.8241 17.6908 49.6977C17.8491 49.8893 18.0847 50 18.3333 50C18.582 50 18.8175 49.8893 18.9758 49.6977C19.6985 48.8241 36.6667 28.184 36.6667 18.3333C36.6553 8.21289 28.4538 0.0113932 18.3333 0ZM18.3333 47.8418C15.1978 43.9274 1.66667 26.5576 1.66667 18.3333C1.66667 9.12842 9.12883 1.66667 18.3333 1.66667C27.5383 1.66667 35 9.12842 35 18.3333C35 26.5576 21.4693 43.9274 18.3333 47.8418Z" fill="url(#paint0_linear_341_613)"/>
<path d="M18.3332 4.16669C10.5093 4.16669 4.1665 10.5095 4.1665 18.3334C4.1665 26.1573 10.5093 32.5 18.3332 32.5C26.1575 32.5 32.4998 26.1573 32.4998 18.3334C32.4913 10.5131 26.1538 4.17523 18.3332 4.16669ZM18.3332 30.8334C11.4297 30.8334 5.83317 25.2368 5.83317 18.3334C5.83317 11.4299 11.4297 5.83335 18.3332 5.83335C25.2367 5.83335 30.8332 11.4299 30.8332 18.3334C30.8254 25.2336 25.2334 30.8256 18.3332 30.8334Z" fill="url(#paint1_linear_341_613)"/>
<path d="M18.333 0.833374C8.6683 0.833374 0.833008 8.66825 0.833008 18.3334C0.833008 28.0001 18.333 49.1667 18.333 49.1667C18.333 49.1667 35.833 28.0001 35.833 18.3334C35.833 8.66825 27.9981 0.833374 18.333 0.833374ZM18.333 31.6667C10.9693 31.6667 4.99968 25.6971 4.99968 18.3334C4.99968 10.9697 10.9693 5.00004 18.333 5.00004C25.6967 5.00004 31.6663 10.9697 31.6663 18.3334C31.6582 25.6938 25.6934 31.6586 18.333 31.6667Z" fill="url(#paint2_linear_341_613)"/>
<defs>
<linearGradient id="paint0_linear_341_613" x1="0" y1="25" x2="36.6667" y2="25" gradientUnits="userSpaceOnUse">
<stop stop-color="#0052D4"/>
<stop offset="0.5" stop-color="#4364F7"/>
<stop offset="1" stop-color="#6FB1FC"/>
</linearGradient>
<linearGradient id="paint1_linear_341_613" x1="4.1665" y1="18.3334" x2="32.4998" y2="18.3334" gradientUnits="userSpaceOnUse">
<stop stop-color="#0052D4"/>
<stop offset="0.5" stop-color="#4364F7"/>
<stop offset="1" stop-color="#6FB1FC"/>
</linearGradient>
<linearGradient id="paint2_linear_341_613" x1="0.833008" y1="25" x2="35.833" y2="25" gradientUnits="userSpaceOnUse">
<stop stop-color="#0052D4"/>
<stop offset="0.5" stop-color="#4364F7"/>
<stop offset="1" stop-color="#6FB1FC"/>
</linearGradient>
</defs>
</svg>
