<svg width="1920" height="474" viewBox="0 0 1920 474" fill="none" xmlns="http://www.w3.org/2000/svg">
<rect x="1" width="1920" height="473" fill="white"/>
<path d="M180.08 43.0081C303.224 46.7845 348.67 15.9095 356 0L0 0L0 257C35.6594 242.314 47.8866 215.464 50.5175 204.027C66.5643 134.269 56.9362 39.2318 180.08 43.0081Z" fill="#2D6AFB" fill-opacity="0.3"/>
<path d="M1620.89 61.7776C1598.39 68.1776 1577.19 79.3776 1559.09 94.1776C1543.49 106.978 1530.09 122.778 1522.09 141.278C1516.69 153.878 1513.79 167.378 1511.59 180.978C1506.59 211.378 1504.39 242.978 1512.99 272.578C1524.99 313.878 1557.89 347.578 1597.39 364.578C1636.89 381.578 1682.09 382.578 1723.69 371.878C1746.49 365.978 1768.89 356.378 1786.39 340.578C1811.19 318.178 1825.29 284.478 1853.39 266.478C1876.99 251.378 1906.99 249.678 1930.99 235.378C1959.29 218.478 1975.69 184.778 1975.19 151.678C1974.59 118.578 1958.39 86.8776 1934.49 64.1776C1910.59 41.3776 1879.49 27.1776 1847.29 19.8776C1806.79 10.6776 1763.99 12.3776 1724.29 24.2776C1707.79 29.2776 1696.09 38.7776 1680.79 45.6776C1661.59 53.9776 1640.59 56.1776 1620.89 61.7776Z" fill="#EBF6FF"/>
<path d="M1610.89 182.478H1522.29C1520.49 182.478 1518.99 180.978 1518.99 179.178C1518.99 177.378 1520.49 175.878 1522.29 175.878H1610.89C1612.69 175.878 1614.19 177.378 1614.19 179.178C1614.19 180.978 1612.69 182.478 1610.89 182.478Z" fill="#CFDAEE"/>
<path d="M1545.99 131.978H1535.59V175.478H1545.99V131.978Z" fill="url(#paint0_linear_457_450)"/>
<path d="M1545.89 168.778H1535.59V172.278H1545.89V168.778Z" fill="#F7E4DD"/>
<path d="M1543.79 138.378H1537.59V140.478H1543.79V138.378Z" fill="#F7E4DD"/>
<path d="M1570.29 131.978H1559.89V175.478H1570.29V131.978Z" fill="url(#paint1_linear_457_450)"/>
<path d="M1570.19 168.778H1559.89V172.278H1570.19V168.778Z" fill="#FCF8E3"/>
<path d="M1568.09 138.378H1561.89V140.478H1568.09V138.378Z" fill="#FCF8E3"/>
<path d="M1557.89 131.978H1547.49V175.478H1557.89V131.978Z" fill="url(#paint2_linear_457_450)"/>
<path d="M1554.99 138.178H1550.39V165.378H1554.99V138.178Z" fill="#EAEFF8"/>
<path d="M1582.59 131.978H1572.19V175.478H1582.59V131.978Z" fill="url(#paint3_linear_457_450)"/>
<path d="M1580.39 138.378H1574.19V140.478H1580.39V138.378Z" fill="#F7E4DD"/>
<path d="M1580.39 169.378H1574.19V172.278H1580.39V169.378Z" fill="#F7E4DD"/>
<path d="M1594.49 131.978H1584.09V175.478H1594.49V131.978Z" fill="url(#paint4_linear_457_450)"/>
<path d="M1591.59 140.778H1586.99V167.978H1591.59V140.778Z" fill="#EAEFF8"/>
<path d="M1612.79 77.6776H1549.69C1545.29 77.6776 1541.69 81.2776 1541.69 85.6776V110.178C1541.69 114.578 1545.29 118.178 1549.69 118.178H1591.49L1607.09 140.478L1602.99 118.178H1612.89C1617.29 118.178 1620.89 114.578 1620.89 110.178V85.6776C1620.79 81.2776 1617.19 77.6776 1612.79 77.6776Z" fill="url(#paint5_linear_457_450)"/>
<path d="M1550.99 110.378H1594.79C1596.19 110.378 1597.19 109.278 1597.19 107.978C1597.19 106.578 1596.09 105.578 1594.79 105.578H1550.99C1549.59 105.578 1548.59 106.678 1548.59 107.978C1548.49 109.278 1549.59 110.378 1550.99 110.378Z" fill="#D6DFF1"/>
<path d="M1550.99 99.8776H1609.79C1611.19 99.8776 1612.19 98.7776 1612.19 97.4776C1612.19 96.0776 1611.09 95.0776 1609.79 95.0776H1550.99C1549.59 95.0776 1548.59 96.1776 1548.59 97.4776C1548.49 98.7776 1549.59 99.8776 1550.99 99.8776Z" fill="#D6DFF1"/>
<path d="M1550.99 89.3776H1609.79C1611.19 89.3776 1612.19 88.2776 1612.19 86.9776C1612.19 85.5776 1611.09 84.5776 1609.79 84.5776H1550.99C1549.59 84.5776 1548.59 85.6776 1548.59 86.9776C1548.49 88.2776 1549.59 89.3776 1550.99 89.3776Z" fill="#D6DFF1"/>
<path d="M1609.69 110.478C1611.18 110.478 1612.39 109.269 1612.39 107.778C1612.39 106.286 1611.18 105.078 1609.69 105.078C1608.2 105.078 1606.99 106.286 1606.99 107.778C1606.99 109.269 1608.2 110.478 1609.69 110.478Z" fill="#D6DFF1"/>
<path d="M1708.89 113.278C1725.02 113.278 1738.09 100.16 1738.09 83.9776C1738.09 67.7957 1725.02 54.6776 1708.89 54.6776C1692.77 54.6776 1679.69 67.7957 1679.69 83.9776C1679.69 100.16 1692.77 113.278 1708.89 113.278Z" fill="url(#paint6_linear_457_450)"/>
<path d="M1708.89 105.878C1720.93 105.878 1730.69 96.0726 1730.69 83.9776C1730.69 71.8826 1720.93 62.0776 1708.89 62.0776C1696.85 62.0776 1687.09 71.8826 1687.09 83.9776C1687.09 96.0726 1696.85 105.878 1708.89 105.878Z" fill="white"/>
<path d="M1715.79 71.6776C1716.79 72.2776 1717.99 71.8776 1718.49 70.8776C1719.09 69.8776 1718.69 68.6776 1717.69 68.1776C1716.69 67.5776 1715.49 67.9776 1714.99 68.9776C1714.59 69.6776 1714.69 70.3776 1714.99 70.9776C1715.29 71.2776 1715.49 71.4776 1715.79 71.6776Z" fill="#D6DFF1"/>
<path d="M1721.19 77.4776C1722.19 78.0776 1723.39 77.6776 1723.89 76.6776C1724.49 75.6776 1724.09 74.4776 1723.09 73.9776C1722.09 73.3776 1720.89 73.7776 1720.39 74.7776C1719.99 75.4776 1720.09 76.1776 1720.39 76.7776C1720.59 76.9776 1720.89 77.2776 1721.19 77.4776Z" fill="#D6DFF1"/>
<path d="M1708.79 69.8776C1709.89 69.8776 1710.79 68.9776 1710.79 67.8776C1710.79 66.7776 1709.89 65.8776 1708.79 65.8776C1707.69 65.8776 1706.79 66.7776 1706.79 67.8776C1706.79 68.2776 1706.89 68.5776 1707.09 68.8776C1707.39 69.4776 1708.09 69.8776 1708.79 69.8776Z" fill="#D6DFF1"/>
<path d="M1709.09 98.0776C1707.99 98.0776 1707.09 98.9776 1707.09 100.078C1707.09 100.478 1707.19 100.778 1707.39 101.078C1707.69 101.678 1708.39 102.078 1709.09 102.078C1710.19 102.078 1711.09 101.178 1711.09 100.078C1711.09 98.9776 1710.19 98.0776 1709.09 98.0776Z" fill="#D6DFF1"/>
<path d="M1716.09 96.0776C1715.19 96.6776 1714.79 97.8776 1715.39 98.7776C1715.99 99.7776 1717.19 100.078 1718.09 99.4776C1718.99 98.8776 1719.39 97.6776 1718.79 96.7776C1718.19 95.8776 1716.99 95.5776 1716.09 96.0776Z" fill="#D6DFF1"/>
<path d="M1723.89 90.1776C1722.89 89.6776 1721.69 89.9776 1721.19 90.9776C1720.79 91.6776 1720.89 92.3776 1721.19 92.9776C1721.39 93.2776 1721.59 93.5776 1721.89 93.6776C1722.89 94.2776 1724.09 93.8776 1724.59 92.8776C1725.19 91.9776 1724.89 90.6776 1723.89 90.1776Z" fill="#D6DFF1"/>
<path d="M1694.79 84.1776C1694.79 83.0776 1693.89 82.1776 1692.79 82.1776C1691.69 82.1776 1690.79 83.0776 1690.79 84.1776C1690.79 84.5776 1690.89 84.8776 1691.09 85.1776C1691.39 85.7776 1692.09 86.1776 1692.79 86.1776C1693.99 86.1776 1694.89 85.2776 1694.79 84.1776Z" fill="#D6DFF1"/>
<path d="M1694.09 90.4776C1693.19 91.0776 1692.79 92.2776 1693.39 93.1776C1693.99 94.0776 1695.19 94.4776 1696.09 93.8776C1696.99 93.2776 1697.29 92.0776 1696.79 91.0776C1696.19 90.1776 1694.99 89.8776 1694.09 90.4776Z" fill="#D6DFF1"/>
<path d="M1722.99 83.8776C1722.99 84.2776 1723.09 84.5776 1723.29 84.8776C1723.59 85.4776 1724.29 85.8776 1724.99 85.8776C1726.09 85.8776 1726.99 84.9776 1726.99 83.8776C1726.99 82.7776 1726.09 81.8776 1724.99 81.8776C1723.89 81.8776 1722.99 82.7776 1722.99 83.8776Z" fill="#D6DFF1"/>
<path d="M1693.89 77.7776C1694.89 78.3776 1696.09 77.9776 1696.59 76.9776C1697.09 75.9776 1696.79 74.7776 1695.79 74.2776C1694.79 73.7776 1693.59 74.0776 1693.09 75.0776C1692.79 75.6776 1692.79 76.4776 1693.09 77.0776C1693.39 77.3776 1693.59 77.6776 1693.89 77.7776Z" fill="#D6DFF1"/>
<path d="M1701.69 71.8776C1701.69 71.8776 1701.79 71.8776 1701.69 71.8776C1701.79 71.8776 1701.79 71.8776 1701.69 71.8776C1701.79 71.7776 1701.79 71.7776 1701.69 71.8776C1702.69 71.2776 1702.99 70.0776 1702.49 69.0776C1701.89 68.0776 1700.69 67.7776 1699.79 68.3776C1698.89 68.9776 1698.49 70.1776 1699.09 71.0776C1699.59 72.0776 1700.79 72.3776 1701.69 71.8776Z" fill="#D6DFF1"/>
<path d="M1701.99 96.2776C1700.99 95.6776 1699.79 96.0776 1699.29 97.0776C1698.89 97.7776 1698.99 98.4776 1699.29 99.0776C1699.49 99.3776 1699.69 99.6776 1699.99 99.7776C1700.99 100.278 1702.19 99.9776 1702.69 98.9776C1703.29 97.9776 1702.99 96.7776 1701.99 96.2776Z" fill="#D6DFF1"/>
<path d="M1708.79 66.0776L1708.89 84.8776L1719.49 77.6776" stroke="#7492C9" stroke-width="0.9392" stroke-miterlimit="10"/>
<path d="M1628.29 191.978C1639.89 187.678 1642.99 189.378 1644.39 185.478C1644.39 185.378 1644.49 185.378 1644.49 185.278C1644.59 184.978 1644.69 184.778 1644.69 184.478L1645.49 179.578C1646.79 173.778 1648.49 158.778 1648.49 158.778L1656.69 161.678L1668.49 151.778C1668.49 151.778 1670.79 178.178 1671.59 183.278C1671.69 183.678 1671.79 183.978 1671.89 184.378C1671.89 184.478 1671.99 184.578 1671.99 184.578C1672.19 184.878 1672.29 185.178 1672.49 185.478C1674.89 188.678 1680.99 190.878 1688.29 193.978C1686.19 197.978 1684.89 202.178 1684.09 206.778C1683.29 210.878 1682.29 214.978 1681.69 219.178C1671.79 213.078 1659.49 215.178 1648.99 215.078C1640.39 214.978 1632.49 215.978 1627.79 216.678C1627.69 208.378 1627.19 200.178 1628.29 191.978Z" fill="url(#paint7_linear_457_450)"/>
<path opacity="0.3" d="M1653.99 174.078C1651.29 174.578 1648.79 175.078 1646.49 174.278C1647.89 165.478 1650.59 153.678 1650.59 153.678L1668.69 154.678C1667.89 164.678 1661.99 172.578 1653.99 174.078Z" fill="url(#paint8_linear_457_450)"/>
<path d="M1677.79 189.478C1673.79 194.078 1664.89 197.378 1654.59 197.378C1644.69 197.378 1636.19 194.378 1631.99 190.078C1630.59 190.478 1629.09 190.978 1627.29 191.678C1626.19 199.878 1643.49 245.778 1643.69 254.078C1648.49 253.378 1657.09 275.478 1657.09 275.478C1657.09 275.478 1674.09 234.478 1680.69 218.878C1681.29 214.678 1682.39 210.578 1683.09 206.478C1683.89 201.878 1685.19 197.678 1687.29 193.678C1683.79 192.078 1680.49 190.778 1677.79 189.478Z" fill="#EEBF3B"/>
<path d="M1669.89 213.278C1670.83 213.278 1671.59 212.516 1671.59 211.578C1671.59 210.639 1670.83 209.878 1669.89 209.878C1668.95 209.878 1668.19 210.639 1668.19 211.578C1668.19 212.516 1668.95 213.278 1669.89 213.278Z" fill="#F8ECD6"/>
<path d="M1657.89 205.578C1658.83 205.578 1659.59 204.816 1659.59 203.878C1659.59 202.939 1658.83 202.178 1657.89 202.178C1656.95 202.178 1656.19 202.939 1656.19 203.878C1656.19 204.816 1656.95 205.578 1657.89 205.578Z" fill="#F8ECD6"/>
<path d="M1654.69 219.678C1655.63 219.678 1656.39 218.916 1656.39 217.978C1656.39 217.039 1655.63 216.278 1654.69 216.278C1653.75 216.278 1652.99 217.039 1652.99 217.978C1652.99 218.916 1653.75 219.678 1654.69 219.678Z" fill="#F8ECD6"/>
<path d="M1649.19 231.578C1650.13 231.578 1650.89 230.816 1650.89 229.878C1650.89 228.939 1650.13 228.178 1649.19 228.178C1648.25 228.178 1647.49 228.939 1647.49 229.878C1647.49 230.816 1648.25 231.578 1649.19 231.578Z" fill="#F8ECD6"/>
<path d="M1658.29 255.478C1659.23 255.478 1659.99 254.717 1659.99 253.778C1659.99 252.839 1659.23 252.078 1658.29 252.078C1657.35 252.078 1656.59 252.839 1656.59 253.778C1656.59 254.717 1657.35 255.478 1658.29 255.478Z" fill="#F8ECD6"/>
<path d="M1642.49 211.778C1643.43 211.778 1644.19 211.016 1644.19 210.078C1644.19 209.139 1643.43 208.378 1642.49 208.378C1641.55 208.378 1640.79 209.139 1640.79 210.078C1640.79 211.016 1641.55 211.778 1642.49 211.778Z" fill="#F8ECD6"/>
<path d="M1660.59 234.678C1661.53 234.678 1662.29 233.916 1662.29 232.978C1662.29 232.039 1661.53 231.278 1660.59 231.278C1659.65 231.278 1658.89 232.039 1658.89 232.978C1658.89 233.916 1659.65 234.678 1660.59 234.678Z" fill="#F8ECD6"/>
<path d="M1653.69 246.078C1654.63 246.078 1655.39 245.316 1655.39 244.378C1655.39 243.439 1654.63 242.678 1653.69 242.678C1652.75 242.678 1651.99 243.439 1651.99 244.378C1651.99 245.316 1652.75 246.078 1653.69 246.078Z" fill="#F8ECD6"/>
<path d="M1667.09 225.078C1668.03 225.078 1668.79 224.316 1668.79 223.378C1668.79 222.439 1668.03 221.678 1667.09 221.678C1666.15 221.678 1665.39 222.439 1665.39 223.378C1665.39 224.316 1666.15 225.078 1667.09 225.078Z" fill="#F8ECD6"/>
<path d="M1598.29 212.378C1600.29 208.978 1601.49 206.378 1604.69 204.078C1606.09 203.078 1608.79 202.378 1609.99 200.978C1611.19 199.678 1613.19 200.478 1614.69 199.578C1618.19 197.278 1621.59 195.078 1625.29 193.078C1625.69 192.878 1625.99 192.678 1626.39 192.478C1626.19 193.778 1627.79 194.778 1628.39 195.678C1629.09 196.978 1629.09 198.478 1629.69 199.878C1630.49 201.678 1631.49 203.378 1632.19 205.278C1633.39 208.278 1634.59 210.978 1636.19 213.778C1637.79 216.678 1639.59 219.478 1640.69 222.678C1640.79 222.878 1640.89 223.178 1640.89 223.378C1643.29 231.178 1644.79 238.778 1645.49 246.878C1645.89 251.478 1646.69 255.878 1647.49 260.378C1648.19 264.078 1649.39 260.978 1650.39 264.578C1651.49 268.678 1657.09 275.478 1656.89 274.678C1656.99 275.378 1657.19 274.878 1658.99 272.778C1663.79 267.178 1664.39 262.178 1666.19 254.978C1667.09 251.478 1667.79 247.978 1668.79 244.478C1669.89 240.678 1671.89 237.078 1673.09 233.178C1675.49 224.878 1680.09 217.378 1682.69 209.078C1683.59 206.178 1683.39 203.278 1685.09 200.778C1685.89 199.678 1686.99 198.878 1687.89 197.878C1688.29 197.378 1688.49 196.878 1688.89 196.378C1689.19 195.878 1689.79 195.578 1690.09 195.078C1699.99 199.478 1711.19 202.378 1715.09 213.578C1722.99 236.078 1715.39 264.078 1711.49 286.578C1710.69 291.178 1710.69 298.178 1710.19 302.978C1710.09 303.778 1693.09 305.378 1692.99 306.178L1597.89 305.678C1597.89 302.178 1598.39 296.578 1597.89 293.078C1596.29 282.178 1598.49 270.878 1597.19 259.878C1596.59 255.178 1596.89 250.378 1595.89 245.678C1595.19 242.478 1594.59 239.778 1594.59 236.478C1594.09 228.078 1593.79 219.978 1598.29 212.378Z" fill="#4E6BB1"/>
<path d="M1687.69 194.078C1687.39 193.978 1687.29 193.778 1687.19 193.678C1687.29 193.778 1687.39 193.778 1687.49 193.878C1687.69 193.978 1687.99 194.078 1688.19 194.178C1687.99 194.178 1687.79 194.078 1687.69 194.078Z" fill="#4E6BB1"/>
<path d="M1621.79 269.078C1626.49 277.378 1638.39 280.478 1646.49 275.578" stroke="#8097CB" stroke-width="0.6622" stroke-miterlimit="10"/>
<path d="M1667.29 274.378C1670.79 276.778 1675.19 277.878 1679.39 277.378C1683.59 276.878 1687.59 274.778 1690.39 271.578C1690.99 270.878 1692.19 270.078 1692.49 269.278" stroke="#8097CB" stroke-width="0.6622" stroke-miterlimit="10"/>
<path d="M1627.09 191.978C1627.09 191.978 1630.49 199.278 1638.19 220.478C1645.89 241.678 1657.09 275.278 1657.09 275.278C1657.09 275.278 1638.19 254.478 1618.29 240.078C1612.99 236.178 1626.19 229.178 1626.19 229.178C1626.19 229.178 1612.49 227.878 1606.79 220.878C1602.99 216.178 1602.09 206.578 1602.09 206.578C1602.09 206.578 1604.89 201.678 1614.29 197.978C1621.29 195.278 1627.09 191.978 1627.09 191.978Z" fill="url(#paint9_linear_457_450)"/>
<path d="M1628.79 190.978C1628.79 190.978 1631.39 196.878 1639.09 217.978C1646.79 239.178 1657.09 275.378 1657.09 275.378C1657.09 275.378 1639.09 252.078 1619.19 237.678C1613.89 233.778 1627.09 226.778 1627.09 226.778C1627.09 226.778 1613.39 225.478 1607.69 218.478C1603.89 213.778 1602.99 204.178 1602.99 204.178C1602.99 204.178 1605.79 199.278 1615.19 195.578C1622.19 192.878 1628.79 190.978 1628.79 190.978Z" fill="#8097CB"/>
<path d="M1687.39 193.978C1687.39 193.978 1683.99 201.278 1676.29 222.478C1668.59 243.678 1657.09 275.378 1657.09 275.378C1657.09 275.378 1676.19 256.578 1696.09 242.178C1701.39 238.278 1688.19 231.278 1688.19 231.278C1688.19 231.278 1701.89 229.978 1707.59 222.978C1711.39 218.278 1712.29 208.678 1712.29 208.678C1712.29 208.678 1709.49 203.778 1700.09 200.078C1693.19 197.178 1687.39 193.978 1687.39 193.978Z" fill="url(#paint10_linear_457_450)"/>
<path d="M1685.79 192.578C1685.79 192.578 1682.29 199.578 1674.69 220.778C1667.09 241.978 1657.09 275.278 1657.09 275.278C1657.09 275.278 1674.69 254.778 1694.59 240.478C1699.89 236.578 1686.69 229.578 1686.69 229.578C1686.69 229.578 1700.39 228.278 1706.09 221.278C1709.89 216.578 1710.79 206.978 1710.79 206.978C1710.79 206.978 1707.69 201.278 1698.29 197.678C1691.19 194.778 1685.79 192.578 1685.79 192.578Z" fill="#8097CB"/>
<path d="M1745.09 200.278C1746.29 200.378 1746.89 198.378 1747.09 197.378C1747.29 196.378 1747.49 195.478 1747.89 194.578C1748.39 193.678 1749.19 193.278 1749.89 192.678C1751.69 191.078 1754.09 189.978 1755.69 188.078C1756.69 186.878 1758.69 186.578 1759.99 185.778C1760.49 185.478 1760.99 185.178 1761.49 184.878C1761.99 184.578 1762.49 184.478 1763.09 184.378C1763.59 184.278 1763.99 184.578 1764.49 184.678C1765.49 184.878 1766.29 184.378 1767.19 184.078C1767.79 183.878 1768.29 183.778 1768.89 183.578C1769.99 183.178 1770.89 182.778 1772.19 182.678C1773.39 182.578 1774.29 181.878 1775.29 181.278C1775.99 180.878 1776.89 180.478 1777.59 179.978C1776.89 179.878 1776.39 179.578 1775.69 179.678C1774.89 179.778 1774.09 179.878 1773.39 180.078C1773.09 180.178 1772.79 180.378 1772.49 180.478C1772.19 180.578 1771.89 180.578 1771.59 180.578C1771.09 180.578 1770.49 180.678 1769.99 180.678C1769.19 180.778 1768.39 181.178 1767.49 181.078C1767.99 180.678 1768.49 180.278 1769.09 179.878C1772.59 177.678 1776.49 175.978 1780.29 174.278C1781.19 173.878 1782.09 173.778 1782.99 173.478C1781.69 172.878 1780.39 172.678 1779.09 172.778C1771.69 173.478 1761.19 185.278 1776.99 168.178C1780.59 164.378 1783.19 164.378 1779.39 164.778C1778.29 164.878 1777.19 165.478 1776.29 166.078C1774.99 166.878 1773.79 167.778 1772.59 168.778C1770.49 170.478 1768.39 172.278 1766.19 173.978C1765.89 174.178 1765.39 174.678 1764.99 174.478C1764.39 174.078 1765.29 171.778 1765.49 171.378C1765.89 170.378 1765.99 169.278 1766.39 168.278C1765.99 168.078 1765.49 168.178 1765.09 168.078C1764.59 167.978 1764.09 167.778 1763.59 167.478C1762.59 167.078 1761.59 166.678 1760.59 166.278C1759.69 165.978 1758.79 165.678 1757.89 165.378C1757.49 165.278 1757.19 165.178 1756.79 165.078C1756.39 164.978 1755.89 164.678 1755.39 164.678C1755.19 165.378 1755.39 166.778 1755.79 167.278C1756.29 167.978 1757.19 168.678 1757.89 169.278C1758.69 169.878 1759.29 170.278 1760.19 170.578C1760.39 170.678 1760.99 170.778 1761.09 170.978C1761.19 171.278 1760.79 171.678 1760.59 171.978C1760.39 172.378 1760.39 172.678 1760.19 173.078C1760.09 173.378 1759.79 173.678 1759.59 173.978C1759.19 174.678 1758.69 175.278 1757.99 175.678C1756.39 176.478 1754.09 176.578 1752.79 175.178C1752.09 174.378 1751.69 173.178 1751.99 172.078C1752.29 171.078 1753.09 170.678 1753.69 169.878C1754.19 169.178 1754.99 168.378 1754.89 167.478C1754.79 166.878 1754.69 166.178 1754.69 165.578C1754.69 165.278 1754.79 164.478 1754.49 164.278C1753.99 163.978 1752.99 164.978 1752.69 165.278C1751.59 166.678 1750.39 168.078 1749.19 169.278C1748.39 170.078 1748.09 171.078 1747.69 172.178C1747.29 173.278 1746.79 174.278 1746.59 175.378C1746.49 176.078 1746.69 176.978 1746.39 177.678C1746.19 178.078 1745.89 178.378 1745.59 178.678C1745.19 179.178 1744.79 179.778 1744.49 180.378C1743.89 181.478 1743.29 182.478 1742.79 183.578C1741.99 185.278 1741.39 186.978 1740.39 188.478C1739.79 189.478 1739.29 190.478 1738.69 191.478C1738.29 192.178 1733.89 203.578 1734.99 204.278C1735.79 204.878 1739.69 212.578 1740.09 204.278C1740.19 202.578 1742.89 198.678 1744.19 199.578C1744.59 200.278 1744.89 200.278 1745.09 200.278Z" fill="url(#paint11_linear_457_450)"/>
<path d="M1765.69 163.378L1765.29 162.978L1747.39 180.978L1747.09 180.678L1742.39 183.278L1741.49 182.378L1744.09 177.678L1743.79 177.378L1761.29 159.878L1761.79 159.478L1761.59 159.178L1763.49 157.378" fill="#9CB3DB"/>
<path d="M1746.39 179.878L1747.39 180.978L1764.89 163.478L1761.29 159.878L1743.79 177.378L1744.89 178.378L1746.39 179.878Z" fill="#EEBF3B"/>
<path d="M1741.49 183.678L1742.39 183.378L1741.39 182.378L1741.09 183.278C1740.99 183.578 1741.19 183.778 1741.49 183.678Z" fill="#EEBF3B"/>
<path d="M1746.09 181.778L1746.69 181.278L1743.49 178.178L1742.89 178.778L1741.89 181.478L1743.29 182.878L1746.09 181.778Z" fill="#15123F"/>
<path d="M1765.29 162.978L1765.69 163.378C1766.29 162.778 1766.99 162.078 1767.59 161.378L1767.79 161.578L1767.99 161.778L1768.19 162.078L1761.19 169.078C1760.89 169.378 1760.89 169.778 1761.19 169.978L1761.29 170.078C1761.59 170.378 1761.99 170.378 1762.19 170.078L1772.39 159.778C1772.69 159.478 1772.69 159.078 1772.39 158.878L1772.29 158.778C1771.99 158.478 1771.59 158.478 1771.39 158.778L1769.99 160.178L1769.69 159.878L1769.49 159.678L1769.29 159.478C1770.29 158.278 1771.39 157.078 1772.39 155.878C1773.39 154.778 1774.29 153.578 1775.09 152.478C1776.79 150.278 1778.19 148.378 1778.89 146.978L1777.79 145.878C1776.39 146.578 1774.39 147.978 1772.29 149.678C1770.79 150.878 1769.09 152.278 1767.49 153.678C1765.29 155.578 1763.19 157.478 1761.49 159.178L1761.69 159.378L1765.29 162.978Z" fill="#15123F"/>
<path d="M1765.39 171.678C1765.79 170.678 1765.89 169.578 1766.29 168.578C1765.89 168.378 1765.39 168.478 1764.99 168.378C1764.49 168.278 1763.99 168.078 1763.49 167.778C1762.49 167.378 1761.49 166.978 1760.49 166.578C1759.59 166.278 1758.69 165.978 1757.79 165.678C1757.39 165.578 1757.09 165.478 1756.69 165.378C1756.29 165.278 1755.79 164.978 1755.29 164.978C1755.09 165.678 1755.29 167.078 1755.69 167.578C1756.19 168.278 1757.09 168.978 1757.79 169.578C1758.59 170.178 1759.19 170.578 1760.09 170.878C1760.29 170.978 1760.89 171.078 1760.99 171.278C1761.09 171.578 1760.69 171.978 1760.49 172.278C1760.29 172.678 1760.29 172.978 1760.09 173.378C1759.99 173.678 1759.69 173.978 1759.49 174.278C1759.09 174.878 1758.59 175.578 1757.89 175.978L1764.79 174.778C1764.29 174.378 1765.29 172.078 1765.39 171.678Z" fill="url(#paint12_linear_457_450)"/>
<path d="M1703.79 262.178C1710.69 243.678 1738.89 191.578 1738.89 191.578L1748.69 195.878C1748.69 195.878 1743.39 282.678 1710.69 302.278C1690.09 314.578 1700.19 271.678 1703.79 262.178Z" fill="url(#paint13_linear_457_450)"/>
<path d="M1750.39 192.778L1739.49 190.078L1727.29 197.278L1749.19 207.678L1750.39 192.778Z" fill="#8097CB"/>
<path d="M1747.69 206.078L1734.49 200.478L1732.59 204.278L1747.29 208.978L1747.69 206.078Z" fill="#3D57A5"/>
<path d="M1634.99 152.778C1640.24 152.778 1644.49 147.315 1644.49 140.578C1644.49 133.84 1640.24 128.378 1634.99 128.378C1629.75 128.378 1625.49 133.84 1625.49 140.578C1625.49 147.315 1629.75 152.778 1634.99 152.778Z" fill="#CFDAEE"/>
<path d="M1636.69 148.478C1640.61 148.478 1643.79 144.269 1643.79 139.078C1643.79 133.886 1640.61 129.678 1636.69 129.678C1632.77 129.678 1629.59 133.886 1629.59 139.078C1629.59 144.269 1632.77 148.478 1636.69 148.478Z" fill="#9CB3DB"/>
<path d="M1633.29 141.978C1633.29 162.178 1640.39 170.778 1650.79 170.678C1661.19 170.578 1670.59 159.378 1671.09 145.178C1671.69 131.078 1664.89 117.278 1650.49 117.478C1634.89 117.678 1633.39 127.878 1633.29 141.978Z" fill="url(#paint14_linear_457_450)"/>
<path d="M1633.79 147.478C1633.69 147.478 1633.59 147.478 1633.49 147.478C1633.59 150.778 1634.49 153.878 1634.89 156.478C1637.19 156.278 1638.49 153.978 1638.39 151.578C1638.29 149.178 1636.29 147.378 1633.79 147.478Z" fill="#E06F52"/>
<path d="M1657.69 156.166C1660.12 156.14 1662.07 154.149 1662.04 151.719C1662.01 149.289 1660.02 147.341 1657.59 147.367C1655.16 147.393 1653.21 149.384 1653.24 151.814C1653.27 154.243 1655.26 156.192 1657.69 156.166Z" fill="#E06F52"/>
<path d="M1645.39 142.978C1645.69 145.278 1644.19 147.378 1643.79 149.578C1643.69 149.978 1643.89 150.778 1644.99 151.078C1645.99 151.278 1646.99 151.378 1647.99 151.378" stroke="#15123F" stroke-width="0.5" stroke-miterlimit="10" stroke-linecap="round" stroke-linejoin="round"/>
<path d="M1655.59 140.678C1655.79 141.178 1655.89 141.678 1655.89 142.178C1655.89 142.678 1655.89 143.278 1655.59 143.778C1655.29 144.278 1654.69 144.478 1654.19 144.278C1653.69 144.078 1653.59 143.478 1653.49 142.878C1653.39 142.178 1653.39 141.478 1653.49 140.778C1653.59 140.278 1653.89 139.778 1654.49 139.778C1655.19 139.678 1655.49 140.278 1655.59 140.678Z" fill="#15123F"/>
<path d="M1655.99 145.078C1655.49 145.478 1654.79 145.578 1654.19 145.378C1653.99 145.278 1653.69 145.178 1653.59 144.978" stroke="#15123F" stroke-width="0.3311" stroke-miterlimit="10" stroke-linecap="round" stroke-linejoin="round"/>
<path d="M1657.09 136.178C1656.19 136.078 1655.29 136.078 1654.39 136.178C1653.29 136.278 1652.19 136.578 1651.09 136.178C1650.79 136.078 1650.39 135.778 1650.39 135.478C1650.39 135.178 1650.69 134.878 1651.09 134.778C1652.49 134.078 1654.09 134.178 1655.69 134.278C1656.49 134.378 1657.69 134.478 1658.29 135.078C1658.99 135.878 1657.79 136.278 1657.09 136.178Z" fill="#15123F"/>
<path d="M1658.69 134.978C1658.89 135.078 1659.09 135.278 1659.09 135.578C1659.09 135.878 1658.99 136.078 1658.79 136.178" stroke="#15123F" stroke-width="0.3311" stroke-miterlimit="10" stroke-linecap="round" stroke-linejoin="round"/>
<path d="M1638.19 141.078C1638.39 141.578 1638.49 142.078 1638.49 142.578C1638.49 143.078 1638.49 143.678 1638.29 144.178C1637.99 144.578 1637.49 144.878 1637.09 144.678C1636.69 144.478 1636.49 143.778 1636.49 143.278C1636.39 142.578 1636.39 141.878 1636.49 141.178C1636.49 140.678 1636.89 140.178 1637.39 140.178C1637.79 139.978 1638.09 140.678 1638.19 141.078Z" fill="#15123F"/>
<path d="M1639.19 144.378C1639.09 144.978 1638.59 145.578 1638.09 145.878C1637.89 145.978 1637.59 146.078 1637.39 145.978" stroke="#15123F" stroke-width="0.3311" stroke-miterlimit="10" stroke-linecap="round" stroke-linejoin="round"/>
<path d="M1641.89 136.178C1641.19 136.478 1640.39 136.278 1639.59 136.278C1638.29 136.278 1637.09 136.678 1635.79 136.578C1635.59 136.578 1635.39 136.578 1635.29 136.478C1635.09 136.378 1634.99 136.178 1635.09 135.978C1635.09 135.878 1635.19 135.778 1635.29 135.778C1636.79 134.778 1638.59 134.478 1640.29 134.478C1640.79 134.478 1641.59 134.278 1642.09 134.478C1642.89 135.078 1642.59 135.878 1641.89 136.178Z" fill="#15123F"/>
<path d="M1634.59 135.978C1634.39 136.378 1634.49 136.878 1634.79 137.178" stroke="#15123F" stroke-width="0.3311" stroke-miterlimit="10" stroke-linecap="round" stroke-linejoin="round"/>
<path d="M1652.09 156.278C1652.09 156.278 1649.69 157.578 1647.49 157.778C1645.19 157.978 1642.49 156.778 1642.49 156.778C1642.49 156.778 1643.19 160.578 1644.99 161.978C1646.39 163.078 1649.29 162.878 1650.19 161.878C1652.09 159.678 1652.09 156.278 1652.09 156.278Z" fill="white"/>
<path d="M1633.69 142.878C1633.59 141.378 1632.39 136.478 1632.39 136.478C1637.89 132.578 1640.89 121.978 1640.89 121.978C1650.69 135.978 1669.49 135.478 1669.49 135.478C1669.49 135.478 1670.79 143.378 1670.59 147.578C1671.19 147.978 1673.39 144.378 1674.79 142.578C1677.79 138.978 1682.49 129.178 1677.39 117.178C1670.59 100.978 1641.89 98.9776 1635.09 113.678C1621.89 118.978 1628.19 138.178 1632.39 141.578C1633.39 141.178 1633.09 142.678 1633.69 142.878Z" fill="#15123F"/>
<path d="M1635.29 131.878C1635.29 131.878 1634.89 132.078 1634.29 132.478C1633.99 132.678 1633.59 132.978 1633.29 133.278C1632.99 133.578 1632.59 133.978 1632.59 134.378C1632.59 134.478 1632.59 134.578 1632.59 134.678V134.778C1632.59 134.778 1632.59 134.878 1632.59 134.678V134.978C1632.59 135.178 1632.69 135.178 1632.69 135.278C1632.69 135.378 1632.79 135.478 1632.89 135.578C1633.19 135.978 1633.59 136.478 1634.19 137.178C1634.69 137.778 1635.39 138.578 1635.79 139.878C1635.89 140.178 1635.89 140.578 1635.89 140.978C1635.89 141.178 1635.89 141.378 1635.89 141.578L1635.79 141.878V142.078C1635.79 142.178 1635.79 142.178 1635.69 142.278L1635.59 142.578C1635.49 142.778 1635.39 142.978 1635.29 143.178L1634.99 143.578L1634.69 143.978C1633.69 144.878 1632.79 145.178 1632.09 145.578C1631.39 145.878 1630.69 146.178 1630.39 146.578C1629.99 146.878 1629.89 147.178 1629.79 147.678C1629.69 148.178 1629.79 148.678 1629.99 149.178C1630.39 150.178 1631.09 150.978 1631.59 151.578C1632.09 152.178 1632.39 152.478 1632.39 152.478C1632.39 152.478 1631.99 152.378 1631.19 152.078C1630.79 151.978 1630.39 151.778 1629.89 151.478C1629.39 151.178 1628.79 150.778 1628.29 150.178C1627.79 149.578 1627.39 148.778 1627.19 147.778C1627.09 147.278 1627.09 146.678 1627.29 146.078C1627.29 145.978 1627.39 145.678 1627.49 145.678L1627.59 145.578C1627.69 145.378 1627.69 145.378 1627.69 145.378C1627.79 145.078 1627.99 144.878 1628.19 144.678C1628.99 143.778 1629.89 143.278 1630.59 142.878C1631.39 142.478 1632.09 142.078 1632.39 141.778L1632.49 141.678C1632.49 141.678 1632.49 141.578 1632.59 141.578V141.478V141.278V141.178C1632.59 141.078 1632.59 141.378 1632.59 141.378V141.278C1632.59 141.178 1632.59 141.178 1632.59 141.078C1632.59 140.678 1632.19 140.078 1631.79 139.378C1631.39 138.678 1630.89 137.878 1630.59 136.978C1630.49 136.678 1630.49 136.478 1630.39 136.178C1630.39 135.878 1630.39 135.478 1630.39 135.378L1630.49 135.078C1630.49 134.878 1630.49 134.978 1630.49 134.978V134.878L1630.59 134.678C1630.69 134.478 1630.79 134.178 1630.89 134.078C1631.39 133.278 1632.09 132.978 1632.69 132.778C1633.29 132.578 1633.79 132.478 1634.19 132.478C1634.89 131.778 1635.29 131.878 1635.29 131.878Z" fill="#15123F"/>
<path d="M1679.09 142.378C1682.99 145.378 1691.49 152.578 1695.39 155.578C1697.49 157.178 1699.69 158.878 1701.09 161.078C1702.49 163.378 1703.09 166.378 1701.69 168.678C1700.89 170.178 1699.39 171.078 1697.99 171.978C1695.59 173.578 1692.99 174.978 1691.09 177.178C1689.19 179.378 1687.89 182.378 1688.69 185.178C1689.49 188.278 1692.39 190.278 1694.49 192.678C1698.89 197.878 1699.49 205.578 1697.09 212.078C1694.69 218.478 1689.79 223.678 1684.39 227.678C1677.39 232.878 1668.49 236.578 1659.89 234.878C1655.39 233.978 1650.69 230.878 1650.19 226.278C1649.69 220.878 1654.79 216.878 1659.19 213.878C1659.79 213.478 1660.39 213.078 1660.69 212.378C1661.39 210.678 1659.49 209.078 1657.99 207.978C1651.59 202.978 1651.19 191.878 1657.19 186.378C1660.29 183.478 1664.49 182.278 1668.49 180.778C1672.49 179.278 1676.49 177.178 1678.59 173.478C1680.69 169.778 1679.69 164.078 1675.69 162.678C1675.49 162.778 1672.79 160.478 1672.49 158.578C1672.29 157.378 1671.99 156.678 1671.79 155.478C1671.59 154.378 1671.79 152.878 1672.19 151.878" fill="#15123F"/>
<path d="M1683.09 151.178C1685.79 153.178 1689.19 159.478 1691.59 161.878C1692.59 162.878 1693.49 163.878 1693.69 165.278C1694.09 167.878 1691.59 169.978 1689.39 171.478C1685.89 173.878 1682.39 176.678 1680.29 180.478C1678.29 184.278 1677.99 189.278 1680.69 192.678C1681.89 194.278 1683.69 195.278 1685.19 196.578C1686.69 197.878 1688.09 199.578 1688.09 201.578C1688.19 203.578 1686.29 205.678 1684.39 205.078" stroke="#9CB3DB" stroke-width="0.3311" stroke-miterlimit="10"/>
<path d="M1673.09 184.578C1663.59 189.678 1662.69 196.078 1664.29 198.878C1665.59 201.178 1668.09 202.478 1669.89 204.378C1672.59 207.378 1673.29 212.178 1671.49 215.878C1669.69 219.578 1665.59 221.978 1661.49 221.678" stroke="#9CB3DB" stroke-width="0.3311" stroke-miterlimit="10"/>
<path d="M1677.69 135.078C1677.69 135.078 1677.59 134.878 1677.49 134.478C1677.39 134.078 1677.09 133.478 1676.79 132.778C1676.49 132.078 1676.09 131.278 1675.59 130.278C1675.09 129.378 1674.39 128.378 1673.69 127.378C1672.99 126.378 1671.99 125.378 1670.99 124.378C1669.99 123.378 1668.79 122.378 1667.59 121.378C1666.39 120.378 1664.99 119.478 1663.59 118.678C1662.19 117.778 1660.69 116.978 1659.19 116.278C1658.49 115.978 1657.59 115.578 1656.89 115.278C1656.49 115.078 1655.99 114.878 1655.69 114.778L1654.59 114.378C1653.89 114.178 1653.09 113.978 1652.29 113.778C1651.49 113.578 1650.79 113.378 1649.99 113.278C1648.49 113.078 1646.99 112.878 1645.49 112.778C1644.09 112.678 1642.69 112.778 1641.39 112.778C1640.79 112.878 1640.09 112.878 1639.59 112.978C1638.99 113.078 1638.49 113.078 1637.89 113.178C1637.39 113.278 1636.89 113.378 1636.39 113.478C1635.99 113.578 1635.49 113.678 1635.19 113.778C1634.79 113.878 1634.49 113.978 1634.19 114.078C1633.89 114.178 1633.69 114.278 1633.49 114.378C1633.09 114.478 1632.89 114.578 1632.89 114.578L1632.69 114.278C1632.69 114.278 1632.89 114.178 1633.19 113.878C1633.39 113.778 1633.59 113.578 1633.79 113.478C1634.09 113.278 1634.39 113.178 1634.69 112.978C1634.99 112.778 1635.39 112.578 1635.89 112.378C1636.29 112.178 1636.79 111.978 1637.29 111.778C1638.29 111.378 1639.49 110.978 1640.89 110.678C1642.19 110.378 1643.69 110.178 1645.29 110.078C1646.89 109.978 1648.49 109.978 1650.19 110.178C1651.89 110.278 1653.59 110.678 1655.39 111.078C1656.29 111.378 1657.09 111.578 1657.99 111.978C1658.89 112.278 1659.69 112.678 1660.49 113.078C1663.79 114.678 1666.79 116.678 1669.39 118.978C1671.99 121.278 1673.99 123.778 1675.29 126.178C1676.59 128.578 1677.29 130.778 1677.59 132.378C1677.79 133.178 1677.89 133.778 1677.89 134.178C1677.89 134.578 1677.99 134.778 1677.99 134.778L1677.69 135.078Z" fill="#CFDAEE"/>
<path d="M1672.49 153.378C1677.74 153.378 1681.99 147.915 1681.99 141.178C1681.99 134.44 1677.74 128.978 1672.49 128.978C1667.25 128.978 1662.99 134.44 1662.99 141.178C1662.99 147.915 1667.25 153.378 1672.49 153.378Z" fill="#9CB3DB"/>
<path d="M1674.09 149.078C1678.01 149.078 1681.19 144.869 1681.19 139.678C1681.19 134.486 1678.01 130.278 1674.09 130.278C1670.17 130.278 1666.99 134.486 1666.99 139.678C1666.99 144.869 1670.17 149.078 1674.09 149.078Z" fill="#CFDAEE"/>
<path d="M1672.49 150.078C1671.89 152.278 1671.29 154.578 1670.59 156.778C1670.39 157.578 1670.19 158.378 1669.59 158.978C1668.89 159.778 1667.79 160.078 1666.79 160.378C1662.69 161.278 1658.39 161.478 1654.29 160.978" stroke="#15123F" stroke-width="0.9933" stroke-miterlimit="10"/>
<path d="M1660.89 160.778V161.578C1660.89 162.378 1660.29 163.078 1659.49 163.078L1654.69 163.278C1653.89 163.278 1653.19 162.678 1653.19 161.878V161.078C1653.19 160.278 1653.79 159.578 1654.59 159.578L1659.39 159.378C1660.19 159.278 1660.79 159.978 1660.89 160.778Z" fill="#15123F"/>
<path d="M1463.59 220.678C1463.59 220.678 1455.99 206.678 1452.19 202.178C1447.09 196.078 1437.89 195.078 1433.99 204.878C1430.39 213.878 1437.19 220.078 1444.49 221.478C1451.69 222.978 1463.59 220.678 1463.59 220.678Z" fill="url(#paint15_linear_457_450)"/>
<path d="M1474.49 217.178C1474.49 217.178 1472.29 200.978 1473.19 193.378C1474.19 185.778 1480.99 184.878 1485.59 187.078C1490.09 189.278 1493.69 194.178 1491.39 201.578C1489.09 208.978 1474.49 217.178 1474.49 217.178Z" fill="url(#paint16_linear_457_450)"/>
<path d="M1470.89 242.278C1470.89 242.278 1459.59 231.578 1454.19 228.978C1448.79 226.378 1440.89 228.178 1439.89 235.978C1438.89 243.678 1441.89 249.178 1450.39 250.278C1458.99 251.278 1470.89 242.278 1470.89 242.278Z" fill="url(#paint17_linear_457_450)"/>
<path d="M1482.09 236.678C1482.09 236.678 1482.29 224.978 1484.39 217.678C1486.49 210.478 1492.49 209.578 1496.89 212.878C1501.29 216.178 1502.99 223.178 1499.59 227.678C1496.09 232.178 1482.09 236.678 1482.09 236.678Z" fill="url(#paint18_linear_457_450)"/>
<path d="M1464.29 201.078C1464.29 201.078 1456.69 195.078 1449.09 186.178C1441.39 177.378 1443.39 160.978 1456.19 159.178C1467.79 157.578 1472.69 168.678 1472.29 177.478C1471.89 186.378 1464.29 201.078 1464.29 201.078Z" fill="url(#paint19_linear_457_450)"/>
<path d="M1458.39 169.178C1458.39 169.178 1462.69 216.078 1491.39 277.178" stroke="#15123F" stroke-width="0.3311" stroke-miterlimit="10" stroke-linecap="round" stroke-linejoin="round"/>
<path d="M1441.19 209.378C1451.59 215.378 1470.69 223.978 1470.69 223.978C1470.69 223.978 1479.59 207.678 1482.49 197.978" stroke="#15123F" stroke-width="0.3311" stroke-miterlimit="10" stroke-linecap="round" stroke-linejoin="round"/>
<path d="M1448.79 238.978C1461.49 241.078 1477.19 243.178 1477.19 243.178C1477.19 243.178 1487.99 229.178 1493.69 219.978" stroke="#15123F" stroke-width="0.3311" stroke-miterlimit="10" stroke-linecap="round" stroke-linejoin="round"/>
<path d="M1493.69 137.278C1492.09 137.178 1490.59 138.378 1489.39 139.578C1480.99 148.378 1477.29 160.478 1475.19 172.378C1474.09 178.578 1473.39 184.878 1473.09 191.278C1472.49 202.778 1472.29 214.378 1474.19 225.778C1475.19 231.478 1475.69 234.678 1477.29 240.178C1478.49 244.478 1482.29 252.378 1488.09 251.678C1486.59 240.778 1485.29 222.578 1486.59 196.978C1487.89 169.878 1491.19 149.478 1493.69 137.278Z" fill="url(#paint20_linear_457_450)"/>
<path d="M1494.09 245.578C1498.29 235.878 1499.89 225.378 1501.29 214.878C1502.29 207.278 1503.19 199.578 1503.89 191.978C1504.69 183.078 1505.39 174.178 1504.59 165.278C1503.79 156.378 1502.69 147.778 1497.99 140.178C1497.39 139.178 1495.59 137.878 1494.39 137.478C1494.19 137.378 1493.89 137.378 1493.69 137.378C1491.19 149.578 1487.79 169.978 1486.49 197.178C1485.19 222.778 1486.59 240.878 1487.99 251.878C1488.09 251.878 1488.19 251.878 1488.39 251.778C1491.19 251.178 1492.89 248.278 1494.09 245.578Z" fill="url(#paint21_linear_457_450)"/>
<path d="M1493.79 136.978C1483.49 176.978 1483.49 235.678 1490.99 281.778" stroke="#FDF8F5" stroke-width="0.3311" stroke-miterlimit="10"/>
<path d="M1486.89 191.578C1492.19 187.178 1496.99 182.278 1501.19 176.978" stroke="#FDF8F5" stroke-width="0.3311" stroke-miterlimit="10"/>
<path d="M1473.99 192.078C1477.19 198.178 1481.39 203.678 1486.29 208.478" stroke="#FDF8F5" stroke-width="0.3311" stroke-miterlimit="10"/>
<path d="M1486.29 221.978C1487.89 221.778 1489.29 220.678 1490.69 219.678C1492.99 217.878 1495.29 216.078 1497.19 213.878" stroke="#FDF8F5" stroke-width="0.3311" stroke-miterlimit="10"/>
<path d="M1470.59 265.978H1492.39C1492.39 265.978 1516.79 227.378 1509.89 213.078C1509.89 213.078 1523.89 181.078 1514.69 176.678C1505.49 172.278 1493.99 198.778 1493.99 198.778C1493.99 198.778 1472.89 198.178 1470.59 265.978Z" fill="url(#paint22_linear_457_450)"/>
<path d="M1514.79 176.678C1514.79 176.678 1490.19 221.278 1481.79 265.978" stroke="#15123F" stroke-width="0.3311" stroke-miterlimit="10" stroke-linecap="round" stroke-linejoin="round"/>
<path d="M1489.79 304.078H1467.19L1463.49 265.978H1493.59L1489.79 304.078Z" fill="#15123F"/>
<path d="M1498.19 265.978H1459.59V272.978H1498.19V265.978Z" fill="#383964"/>
<path d="M1464.19 272.978L1492.29 278.178L1492.89 272.978H1464.19Z" fill="#111124"/>
<path d="M1611.69 231.178C1611.39 228.978 1609.49 227.378 1607.29 227.378L1607.79 229.078L1493.69 228.478C1492.59 229.478 1491.89 230.978 1492.19 232.578L1503.29 303.678H1623.09L1611.69 231.178Z" fill="url(#paint23_linear_457_450)"/>
<path d="M1607.29 227.378H1496.59C1495.49 227.378 1493.79 228.078 1492.99 229.278L1610.29 229.378L1607.29 227.378Z" fill="#EBF0F8"/>
<path d="M1668.49 303.678H1597.09V295.778H1668.49C1670.69 295.778 1672.49 297.578 1672.49 299.778C1672.49 301.878 1670.69 303.678 1668.49 303.678Z" fill="#CFDAEE"/>
<path d="M1553.69 272.878C1557.17 272.878 1559.99 270.057 1559.99 266.578C1559.99 263.098 1557.17 260.278 1553.69 260.278C1550.21 260.278 1547.39 263.098 1547.39 266.578C1547.39 270.057 1550.21 272.878 1553.69 272.878Z" fill="#CFDAEE"/>
<path d="M1610.99 229.378L1623.29 301.078L1617.79 301.978L1605.49 230.278C1605.19 228.778 1606.29 227.378 1607.79 227.078C1609.29 226.878 1610.69 227.878 1610.99 229.378Z" fill="#CFDAEE"/>
<path d="M1717.89 291.378C1717.89 291.378 1727.29 287.278 1723.69 275.778C1720.09 264.278 1706.29 266.478 1707.09 255.878C1707.89 245.078 1718.69 247.878 1723.69 244.778C1728.69 241.778 1723.99 233.078 1731.49 229.478C1738.99 225.878 1746.39 231.278 1756.69 233.078C1766.99 234.878 1775.89 236.578 1775.59 233.078C1775.29 229.578 1770.29 229.178 1771.99 224.878C1773.69 220.678 1782.09 220.678 1783.39 221.878C1783.39 221.878 1774.19 221.878 1773.89 225.078C1773.59 228.278 1780.69 229.778 1780.39 235.578C1780.09 241.378 1767.49 240.178 1755.29 239.378C1742.99 238.578 1744.09 243.478 1745.09 249.578C1746.09 255.678 1744.09 259.778 1736.09 260.778C1728.09 261.878 1724.39 262.878 1728.79 271.678C1732.69 279.278 1729.59 286.378 1722.39 291.378H1717.89V291.378Z" fill="url(#paint24_linear_457_450)"/>
<path d="M1732.09 290.778C1731.39 297.178 1729.19 301.378 1727.99 303.178C1727.59 303.878 1726.79 304.278 1725.99 304.278H1717.69C1716.89 304.278 1716.09 303.878 1715.69 303.178C1714.49 301.378 1712.29 297.178 1711.59 290.778C1711.49 290.078 1712.09 289.478 1712.79 289.478H1730.99C1731.69 289.478 1732.19 290.078 1732.09 290.778Z" fill="#EEBF3B"/>
<path d="M1730.49 294.878C1731.29 294.178 1733.29 292.878 1734.29 292.678C1734.69 292.578 1735.19 292.578 1735.59 292.678C1735.99 292.778 1736.39 293.178 1736.39 293.678C1736.39 293.978 1736.29 294.178 1736.19 294.378C1735.09 297.178 1732.29 299.178 1729.29 299.278" stroke="#EDBE3A" stroke-width="1.3244" stroke-miterlimit="10"/>
<path opacity="0.38" d="M1729.59 298.778C1729.79 298.778 1729.99 298.778 1730.19 298.778C1730.69 297.578 1731.09 296.278 1731.49 294.678H1711.99C1712.39 296.478 1712.99 297.978 1713.49 299.278H1729.89C1729.99 299.078 1729.99 298.978 1730.09 298.778C1729.99 298.778 1729.79 298.778 1729.59 298.778Z" fill="#F8ECD6"/>
<path d="M1772.69 312.878H1459.69V338.678H1772.69V312.878Z" fill="#CFDAEE"/>
<path d="M1452.19 311.878L1443.49 469.278H1449.29L1470.69 311.878H1452.19Z" fill="#44559F"/>
<path d="M1780.19 311.878L1788.89 469.278H1783.09L1761.59 311.878H1780.19Z" fill="#44559F"/>
<path d="M1788.69 315.378H1443.79C1440.69 315.378 1438.19 312.878 1438.19 309.778C1438.19 306.678 1440.69 304.178 1443.79 304.178H1788.69C1791.79 304.178 1794.29 306.678 1794.29 309.778C1794.29 312.878 1791.79 315.378 1788.69 315.378Z" fill="#44559F"/>
<path opacity="0.1" d="M1451.79 318.978L1781.39 334.178L1780.19 312.878H1452.19L1451.79 318.978Z" fill="url(#paint25_linear_457_450)"/>
<path d="M1786.69 473.678C1791.17 473.678 1794.79 472.424 1794.79 470.878C1794.79 469.331 1791.17 468.078 1786.69 468.078C1782.22 468.078 1778.59 469.331 1778.59 470.878C1778.59 472.424 1782.22 473.678 1786.69 473.678Z" fill="#D1DAEB"/>
<path d="M1446.19 473.678C1450.67 473.678 1454.29 472.424 1454.29 470.878C1454.29 469.331 1450.67 468.078 1446.19 468.078C1441.72 468.078 1438.09 469.331 1438.09 470.878C1438.09 472.424 1441.72 473.678 1446.19 473.678Z" fill="#D1DAEB"/>
<defs>
<linearGradient id="paint0_linear_457_450" x1="1535.6" y1="153.755" x2="1545.96" y2="153.755" gradientUnits="userSpaceOnUse">
<stop offset="0.2151" stop-color="#E9A793"/>
<stop offset="1" stop-color="#E06F52"/>
</linearGradient>
<linearGradient id="paint1_linear_457_450" x1="1555.55" y1="153.557" x2="1610.96" y2="154.714" gradientUnits="userSpaceOnUse">
<stop offset="0.0863958" stop-color="#EDBE3A" stop-opacity="0.9078"/>
<stop offset="0.7398" stop-color="#E28B36"/>
</linearGradient>
<linearGradient id="paint2_linear_457_450" x1="1564.81" y1="153.63" x2="1532.73" y2="153.96" gradientUnits="userSpaceOnUse">
<stop offset="0.2151" stop-color="#9CB3DB"/>
<stop offset="1" stop-color="#CFDAEE"/>
</linearGradient>
<linearGradient id="paint3_linear_457_450" x1="1572.2" y1="153.755" x2="1582.56" y2="153.755" gradientUnits="userSpaceOnUse">
<stop offset="0.2151" stop-color="#E9A793"/>
<stop offset="1" stop-color="#E06F52"/>
</linearGradient>
<linearGradient id="paint4_linear_457_450" x1="1620.43" y1="154.361" x2="1577.93" y2="153.534" gradientUnits="userSpaceOnUse">
<stop offset="0.2151" stop-color="#9CB3DB"/>
<stop offset="1" stop-color="#CFDAEE"/>
</linearGradient>
<linearGradient id="paint5_linear_457_450" x1="1559.48" y1="57.7663" x2="1661.13" y2="245.556" gradientUnits="userSpaceOnUse">
<stop offset="0.2151" stop-color="#9CB3DB"/>
<stop offset="1" stop-color="#CFDAEE"/>
</linearGradient>
<linearGradient id="paint6_linear_457_450" x1="1673.82" y1="114.583" x2="1736.06" y2="60.2897" gradientUnits="userSpaceOnUse">
<stop offset="0.2151" stop-color="#9CB3DB"/>
<stop offset="1" stop-color="#CFDAEE"/>
</linearGradient>
<linearGradient id="paint7_linear_457_450" x1="1699.14" y1="179.003" x2="1590.47" y2="208.278" gradientUnits="userSpaceOnUse">
<stop offset="2.872e-05" stop-color="#E06F52"/>
<stop offset="0.7496" stop-color="#E9A793"/>
</linearGradient>
<linearGradient id="paint8_linear_457_450" x1="1646.46" y1="164.199" x2="1668.62" y2="164.199" gradientUnits="userSpaceOnUse">
<stop offset="0.2151" stop-color="#A85640"/>
<stop offset="1" stop-color="#A85640" stop-opacity="0"/>
</linearGradient>
<linearGradient id="paint9_linear_457_450" x1="1673.92" y1="182.96" x2="1612.59" y2="263.059" gradientUnits="userSpaceOnUse">
<stop offset="0.1816" stop-color="#5B77B8"/>
<stop offset="0.5447" stop-color="#4A66AE"/>
</linearGradient>
<linearGradient id="paint10_linear_457_450" x1="1641.67" y1="185.599" x2="1700.8" y2="262.838" gradientUnits="userSpaceOnUse">
<stop offset="0.1816" stop-color="#5B77B8"/>
<stop offset="0.5447" stop-color="#4A66AE"/>
</linearGradient>
<linearGradient id="paint11_linear_457_450" x1="1734.92" y1="186.52" x2="1782.93" y2="186.52" gradientUnits="userSpaceOnUse">
<stop offset="2.872e-05" stop-color="#E06F52"/>
<stop offset="0.7496" stop-color="#E9A793"/>
</linearGradient>
<linearGradient id="paint12_linear_457_450" x1="1757.21" y1="159.608" x2="1765.71" y2="181.031" gradientUnits="userSpaceOnUse">
<stop offset="2.872e-05" stop-color="#E06F52"/>
<stop offset="0.9287" stop-color="#E9A793"/>
</linearGradient>
<linearGradient id="paint13_linear_457_450" x1="1748.76" y1="248.034" x2="1698.15" y2="248.034" gradientUnits="userSpaceOnUse">
<stop offset="0.1816" stop-color="#5B77B8"/>
<stop offset="0.5447" stop-color="#4A66AE"/>
</linearGradient>
<linearGradient id="paint14_linear_457_450" x1="1663.44" y1="117.415" x2="1623.68" y2="200.426" gradientUnits="userSpaceOnUse">
<stop offset="2.872e-05" stop-color="#E06F52"/>
<stop offset="0.7496" stop-color="#E9A793"/>
</linearGradient>
<linearGradient id="paint15_linear_457_450" x1="1464.44" y1="211.516" x2="1433.05" y2="208.596" gradientUnits="userSpaceOnUse">
<stop offset="0.0251397" stop-color="#EDBE3A" stop-opacity="0.9078"/>
<stop offset="1" stop-color="#E28B36"/>
</linearGradient>
<linearGradient id="paint16_linear_457_450" x1="1491.64" y1="202.844" x2="1472.54" y2="201.068" gradientUnits="userSpaceOnUse">
<stop offset="0.0251397" stop-color="#EDBE3A" stop-opacity="0.9078"/>
<stop offset="1" stop-color="#E28B36"/>
</linearGradient>
<linearGradient id="paint17_linear_457_450" x1="1471.01" y1="240.971" x2="1439.63" y2="238.052" gradientUnits="userSpaceOnUse">
<stop offset="0.0251397" stop-color="#EDBE3A" stop-opacity="0.9078"/>
<stop offset="1" stop-color="#E28B36"/>
</linearGradient>
<linearGradient id="paint18_linear_457_450" x1="1501.13" y1="225.155" x2="1483.02" y2="223.471" gradientUnits="userSpaceOnUse">
<stop offset="0.0251397" stop-color="#EDBE3A" stop-opacity="0.9078"/>
<stop offset="1" stop-color="#E28B36"/>
</linearGradient>
<linearGradient id="paint19_linear_457_450" x1="1471.97" y1="180.97" x2="1444.09" y2="178.377" gradientUnits="userSpaceOnUse">
<stop offset="0.0251397" stop-color="#EDBE3A" stop-opacity="0.9078"/>
<stop offset="1" stop-color="#E28B36"/>
</linearGradient>
<linearGradient id="paint20_linear_457_450" x1="1482.43" y1="170.404" x2="1506.96" y2="352.064" gradientUnits="userSpaceOnUse">
<stop offset="0.2151" stop-color="#9CB3DB"/>
<stop offset="1" stop-color="#CFDAEE"/>
</linearGradient>
<linearGradient id="paint21_linear_457_450" x1="1514.09" y1="301.435" x2="1485.58" y2="149.609" gradientUnits="userSpaceOnUse">
<stop stop-color="#677EBA"/>
<stop offset="0.4781" stop-color="#8DA3D2"/>
</linearGradient>
<linearGradient id="paint22_linear_457_450" x1="1470.62" y1="221.105" x2="1517.88" y2="221.105" gradientUnits="userSpaceOnUse">
<stop offset="0.0251397" stop-color="#EDBE3A" stop-opacity="0.9078"/>
<stop offset="1" stop-color="#E28B36"/>
</linearGradient>
<linearGradient id="paint23_linear_457_450" x1="1545.1" y1="202.322" x2="1566.12" y2="312.63" gradientUnits="userSpaceOnUse">
<stop offset="0.2151" stop-color="#9CB3DB"/>
<stop offset="1" stop-color="#CFDAEE"/>
</linearGradient>
<linearGradient id="paint24_linear_457_450" x1="1746.45" y1="284.205" x2="1744.33" y2="207.428" gradientUnits="userSpaceOnUse">
<stop offset="0.0492588" stop-color="white"/>
<stop offset="1" stop-color="white" stop-opacity="0.6"/>
</linearGradient>
<linearGradient id="paint25_linear_457_450" x1="1616.6" y1="272.45" x2="1616.6" y2="430.716" gradientUnits="userSpaceOnUse">
<stop stop-color="#15123F"/>
<stop offset="1" stop-color="#13113B" stop-opacity="0"/>
</linearGradient>
</defs>
</svg>
